# xmcd
#
# Track frame offsets:
#	150
#	15703
#	32924
#	49997
#	60293
#	79895
#	97660
#	111414
#	125334
#	142933
#	161035
#	180369
#	198175
#	210258
#	226025
#	244500
#	258945
#	271153
#	286284
#	302857
#	313200
#	330225
#
# Disc length: 4646 seconds
#
# Revision: 0
# Processed by: cddbd v1.5.2PL0 Copyright (c) Steve Scherf et al.
# Submitted via: EasyCDDAExtractor 16.0.0.1
#
DISCID=1d122416
DTITLE=Kolmas Nainen - ME - Parhaat levytykset 1985-2013
DYEAR=2014
DGENRE=
TTITLE0=Uneni on vasta alussa
TTITLE1=Kumpi ajaa kovempaa
TTITLE2=Lautalla
TTITLE3=Valehtelisin jos väittäisin (remix ’93)
TTITLE4=Tuulen huuhtoma
TTITLE5=Tästä asti aikaa
TTITLE6=Ote talonkirjasta
TTITLE7=Liity meihin (live ’93)
TTITLE8=Kaupunki on aavikko
TTITLE9=Et sileänä säily
TTITLE10=Ooh, Sammy!
TTITLE11=Hän on yhä hän
TTITLE12=Avaruusmies
TTITLE13=Etsikää Asseri (singleversio ’85)
TTITLE14=Tuli vain mieleen
TTITLE15=Tango taisteluni
TTITLE16=Oi Suomen nuoria!
TTITLE17=Sylistäsi heräsin
TTITLE18=Vuoret tuuli pois puhaltaa
TTITLE19=Maailma on tyly
TTITLE20=Sekunnit ja tunnit
TTITLE21=Ehkä pian
EXTD=
EXTT0=
EXTT1=
EXTT2=
EXTT3=
EXTT4=
EXTT5=
EXTT6=
EXTT7=
EXTT8=
EXTT9=
EXTT10=
EXTT11=
EXTT12=
EXTT13=
EXTT14=
EXTT15=
EXTT16=
EXTT17=
EXTT18=
EXTT19=
EXTT20=
EXTT21=
PLAYORDER=
